<svg xmlns="http://www.w3.org/2000/svg" viewBox="0 0 420 420">
  <path d="M224 210l41 41c37-34 84-55 134-59-4-42-21-80-48-109L224 210zM196 210l-41-41c-37 34-84 55-134 59 4 42 21 80 48 109l127-127zM265 279c-30 33-49 76-53 121 48 0 92-19 125-49l-72-72zM169 155l41 41L337 69c-29-27-67-44-109-48-4 50-25 97-59 134zM251 265l-41-41L83 351c29 27 67 44 109 48 4-50 25-97 59-134zM155 141c30-33 49-76 53-121-48 0-92 19-125 49l72 72zM69 83c-30 33-49 77-49 125 45-4 88-23 121-53L69 83zM351 337c30-33 49-77 49-125-45 4-88 23-121 53l72 72z" fill="#ffac52"/>
  <path d="M210 0a210 210 0 100 420 210 210 0 000-420zM20 208c0-48 19-92 49-125l72 72c-33 30-76 49-121 53zM208 20c-4 45-23 88-53 121L83 69c33-30 77-49 125-49zm192 192c0 48-19 92-49 125l-72-72c33-30 76-49 121-53zm-135 39l-41-41L351 83c27 29 44 67 48 109-50 4-97 25-134 59zm-110-82l41 41L69 337c-27-29-44-67-48-109 50-4 97-25 134-59zm55 27l-41-41c34-37 55-84 59-134 42 4 80 21 109 48L210 196zm0 28l41 41c-34 37-55 84-59 134-42-4-80-21-109-48l127-127zm55 55l72 72c-33 30-77 49-125 49 4-45 23-88 53-121z"/>
</svg>
